Coordinates
datacolumns 6
datarows 77
range 0 0.76
inDegrees=yes
Units are S.I. units (second, meters, Newtons, ...)
If the header above contains a line with 'inDegrees', this indicates whether rotational values are in degrees (yes) or radians (no).
endheader
time	foot_tx	hip_flexion_r	knee_angle_r	ankle_angle_r	lumbar
0	0.19145476	54.81723211	-72.47476255	4.25668773	-28.82968851
0.01	0.19141105	55.01342457	-72.46313001	4.2692276	-28.93304252
0.02	0.19137612	55.21671945	-72.45032214	4.28163335	-29.04355288
0.03	0.19134729	55.42918869	-72.43574912	4.29334309	-29.16026048
0.04	0.19132399	55.65092265	-72.41964722	4.30447496	-29.28343011
0.05	0.19130818	55.8509921	-72.39818822	4.31555672	-29.44776078
0.06	0.19128912	56.12420362	-72.38316494	4.32525863	-29.54906554
0.07	0.19127309	56.34207169	-72.36009687	4.33703889	-29.729055
0.08	0.19125074	56.63542277	-72.34394756	4.34801499	-29.8435382
0.09	0.19122457	56.90255038	-72.32466876	4.3620515	-30.00383858
0.1	0.19119552	57.17675009	-72.30491812	4.3777264	-30.17308155
0.11	0.19116397	57.42743428	-72.28175947	4.39646728	-30.38440867
0.12	0.19112507	57.74110222	-72.2652263	4.41640517	-30.54140309
0.13	0.19109109	58.00525261	-72.24146459	4.439744	-30.76821754
0.14	0.19104784	58.32434605	-72.22239793	4.46426426	-30.94998288
0.15	0.19101152	58.60336484	-72.19679532	4.4918545	-31.19083663
0.16	0.19097124	58.93241159	-72.17422304	4.52006241	-31.3918937
0.17	0.19093632	59.22706417	-72.14647415	4.55173841	-31.64597496
0.18	0.19089854	59.58150407	-72.1208238	4.58257875	-31.85171944
0.19	0.19086166	59.93218863	-72.09367153	4.61595844	-32.07874869
0.2	0.19082588	60.30369171	-72.06550117	4.65008626	-32.30073519
0.21	0.19079207	60.69253136	-72.0370077	4.68602573	-32.52007871
0.22	0.19075398	61.10304801	-72.00867982	4.72398213	-32.7321533
0.23	0.19071699	61.54161118	-71.98017012	4.76253195	-32.93055181
0.24	0.19068038	62.0155928	-71.95180476	4.80084762	-33.10778074
0.25	0.19064422	62.5256034	-71.92347149	4.83901509	-33.26232182
0.26	0.19061111	63.06507714	-71.89398976	4.87758775	-33.39922287
0.27	0.19058243	63.62549251	-71.86185055	4.91760857	-33.52509891
0.28	0.19055659	64.19212956	-71.82713672	4.96193834	-33.65259729
0.29	0.19052976	64.75618399	-71.78923436	5.01229226	-33.78967193
0.3	0.19050961	65.31245335	-71.74649212	5.06851488	-33.94025275
0.31	0.19048834	65.85935014	-71.69955693	5.13205227	-34.10600159
0.32	0.1904748	66.39697691	-71.64891664	5.20235408	-34.28651118
0.33	0.19045947	66.9309345	-71.59450584	5.27932632	-34.47686259
0.34	0.19044703	67.46541957	-71.53675661	5.36218054	-34.67230609
0.35	0.19044459	68.00651756	-71.47614199	5.44985456	-34.86566857
0.36	0.19046206	68.5640296	-71.41136662	5.54000263	-35.04577926
0.37	0.19046453	69.12922566	-71.35116578	5.64049983	-35.22182815
0.38	0.19049436	69.72443655	-71.28644369	5.74175766	-35.36813896
0.39	0.19054334	70.34683705	-71.22097622	5.84714062	-35.48569673
0.4	0.19061141	70.99990393	-71.15343305	5.95627276	-35.56893964
0.41	0.19070297	71.67986953	-71.08156322	6.06890839	-35.61956692
0.42	0.19081645	72.38499014	-71.00530209	6.18573992	-35.63692768
0.43	0.19095106	73.11637301	-70.91911163	6.3044436	-35.61708847
0.44	0.19110632	73.86846326	-70.82098247	6.42492149	-35.5630201
0.45	0.19128519	74.64042776	-70.70865693	6.54635459	-35.47156807
0.46	0.19148615	75.42667411	-70.57929804	6.66811084	-35.34528858
0.47	0.19170747	76.2218175	-70.4319892	6.79056002	-35.18564928
0.48	0.191944	77.01721096	-70.26688894	6.91503819	-34.99750949
0.49	0.19220361	77.80624856	-70.08409737	7.04182798	-34.78324415
0.5	0.19247187	78.57567748	-69.88600519	7.17420267	-34.55207469
0.51	0.19275483	79.31551987	-69.67376165	7.31282234	-34.31025147
0.52	0.19304197	80.01995306	-69.45083104	7.45973988	-34.05810374
0.53	0.19331653	80.67871926	-69.22313825	7.61896007	-33.80183184
0.54	0.19357959	81.2900062	-68.99240749	7.78994438	-33.53796314
0.55	0.19382578	81.84636031	-68.7641042	7.97454913	-33.27151295
0.56	0.19405559	82.34545496	-68.54223113	8.17278238	-33.00348451
0.57	0.19426605	82.78316193	-68.33044242	8.3848678	-32.73749336
0.58	0.19446514	83.15949156	-68.12999275	8.6085757	-32.47522463
0.59	0.19465074	83.47174994	-67.94453672	8.84421209	-32.22113133
0.6	0.19482664	83.72070943	-67.77284223	9.08905869	-31.97434251
0.61	0.19499576	83.90577544	-67.61426139	9.34124929	-31.73671426
0.62	0.19516132	84.02505153	-67.46624785	9.59840597	-31.51076569
0.63	0.1953284	84.07701392	-67.32403956	9.85733552	-31.29826084
0.64	0.19549898	84.05859858	-67.18477494	10.11662146	-31.10251247
0.65	0.19567317	83.96916831	-67.04434825	10.37453339	-30.92455886
0.66	0.19585368	83.80763316	-66.89808857	10.62901382	-30.76617538
0.67	0.19603805	83.60731202	-66.74067498	10.87544344	-30.58920334
0.68	0.19622243	83.29836391	-66.5682217	11.11824475	-30.4786879
0.69	0.19641166	82.95676932	-66.37654699	11.3490217	-30.34760316
0.7	0.19659668	82.5647437	-66.16115643	11.56791567	-30.22046551
0.71	0.19677483	82.13674027	-65.91734713	11.77143014	-30.08488376
0.72	0.19694294	81.68235598	-65.64136262	11.95703635	-29.93428203
0.73	0.19709702	81.20990316	-65.33009934	12.1225867	-29.76370804
0.74	0.1972389	80.72740182	-64.98110016	12.26572852	-29.56858698
0.75	0.19736926	80.23586127	-64.59412838	12.38553587	-29.35244957
0.76	0.19748926	79.73672033	-64.16919099	12.481284	-29.1180894
